{"title":"No Good Deed 2014 CAM x264 AC3 TiTAN","uid":11055810,"size":1286985882,"categoryP":"video","categoryS":"movies","magnet":"?xt=urn:btih:d58aea1abebc3d7907a04a5c3d03d5e244f0c6c4&amp;dn=No+Good+Deed+2014+CAM+x264+AC3+TiTAN&amp;tr=udp%3A%2F%2Ftracker.openbittorrent.com%3A80&amp;tr=udp%3A%2F%2Fopen.demonii.com%3A1337&amp;tr=udp%3A%2F%2Ftracker.coppersurfer.tk%3A6969&amp;tr=udp%3A%2F%2Fexodus.desync.com%3A6969","seeders":1,"leechers":0,"uploader":"xxxlavalxxx","files":-1,"time":1411107569,"description":"[IMG]http://i.imgur.com/up6wNkD.jpg[/IMG]\n\n &lt;a href=&quot;\nhttp://www.imdb.com/title/tt2011159/&quot; rel=&quot;nofollow&quot; target=&quot;_NEW&quot;&gt;\nhttp://www.imdb.com/title/tt2011159/&lt;/a&gt;\n\n\nAn unstable escaped convict terrorizes a woman who is alone with her two children.\n\nDirector: Sam Miller\nWriter: Aimee Lagos\nStars: Taraji P. Henson, Idris Elba, Leslie Bibb \nGenres: Crime,Horror,Thriller\nCountry: USA\nLanguage: English\n\n\n\nSource: RBG THX\n\nPretty nice first Cam. Ran threw some filters to try and lower the gain, but still keep it bright enough to watch.. came out pretty well. Cam is complete from beginning to end. and other than a few dark area's is a completely watchable cam.. audio is pretty good and in sync.. Enjoy\n\nGeneral\n\nFormat                                   : Matroska\nFormat version                           : Version 2\nFile size                                : 1.20 GiB\nDuration                                 : 1h 20mn\nOverall bit rate                         : 2 140 Kbps\nEncoded date                             : UTC 2014-09-18 23:45:28\n\nVideo\nID                                       : 1\nFormat                                   : AVC\nFormat/Info                              : Advanced Video Codec\nFormat profile                           : &lt;a class=&quot;__cf_email__&quot; href=&quot;/cdn-cgi/l/email-protection&quot; data-cfemail=&quot;a8e0c1cfc0e8e49c8699&quot;&gt;[email&amp;#160;protected]&lt;/a&gt;&lt;script data-cfhash='f9e31' type=&quot;text/javascript&quot;&gt;\n/* &lt;![CDATA[ */!function(){try{var t=&quot;currentScript&quot;in document?document.currentScript:function(){for(var t=document.getElementsByTagName(&quot;script&quot;),e=t.length;e--;)if(t[e].getAttribute(&quot;data-cfhash&quot;))return t[e]}();if(t&amp;&amp;t.previousSibling){var e,r,n,i,c=t.previousSibling,a=c.getAttribute(&quot;data-cfemail&quot;);if(a){for(e=&quot;&quot;,r=parseInt(a.substr(0,2),16),n=2;a.length-n;n+=2)i=parseInt(a.substr(n,2),16)^r,e+=String.fromCharCode(i);e=document.createTextNode(e),c.parentNode.replaceChild(e,c)}t.parentNode.removeChild(t);}}catch(u){}}()/* ]]&gt; */&lt;/script&gt;\nFormat settings, CABAC                   : Yes\nFormat settings, ReFrames                : 5 frames\nCodec ID                                 : V_MPEG4/ISO/AVC\nDuration                                 : 1h 20mn\nBit rate                                 : 1 947 Kbps\nWidth                                    : 720 pixels\nHeight                                   : 280 pixels\nDisplay aspect ratio                     : 2.571\nFrame rate mode                          : Constant\nFrame rate                               : 23.976 fps\nColor space                              : YUV\nChroma subsampling                       : 4:2:0\nBit depth                                : 8 bits\nScan type                                : Progressive\nBits/(Pixel*Frame)                       : 0.403\nStream size                              : 1.07 GiB (89%)\nDefault                                  : Yes\nForced                                   : No\n\nAudio\nID                                       : 2\nFormat                                   : AC-3\nFormat/Info                              : Audio Coding 3\nMode extension                           : CM (complete main)\nFormat settings, Endianness              : Big\nCodec ID                                 : A_AC3\nDuration                                 : 1h 20mn\nBit rate mode                            : Constant\nBit rate                                 : 192 Kbps\nChannel(s)                               : 2 channels\nChannel positions                        : Front: L R\nSampling rate                            : 48.0 KHz\nBit depth                                : 16 bits\nCompression mode                         : Lossy\nStream size                              : 110 MiB (9%)\nLanguage                                 : English\nDefault                                  : Yes\nForced                                   : No\n\n\n\nscreens\n &lt;a href=&quot;\nhttp://i.imgur.com/3ZAV6U6.jpg&quot; rel=&quot;nofollow&quot; target=&quot;_NEW&quot;&gt;\nhttp://i.imgur.com/3ZAV6U6.jpg&lt;/a&gt; &lt;a href=&quot;\nhttp://i.imgur.com/oRlOyjX.jpg&quot; rel=&quot;nofollow&quot; target=&quot;_NEW&quot;&gt;\nhttp://i.imgur.com/oRlOyjX.jpg&lt;/a&gt; &lt;a href=&quot;\nhttp://i.imgur.com/e4CTAjL.jpg&quot; rel=&quot;nofollow&quot; target=&quot;_NEW&quot;&gt;\nhttp://i.imgur.com/e4CTAjL.jpg&lt;/a&gt; &lt;a href=&quot;\nhttp://i.imgur.com/lCfVvhS.jpg&quot; rel=&quot;nofollow&quot; target=&quot;_NEW&quot;&gt;\nhttp://i.imgur.com/lCfVvhS.jpg&lt;/a&gt; &lt;a href=&quot;\nhttp://i.imgur.com/2gFHq5I.jpg&quot; rel=&quot;nofollow&quot; target=&quot;_NEW&quot;&gt;\nhttp://i.imgur.com/2gFHq5I.jpg&lt;/a&gt;","torrent":{"xt":"urn:btih:d58aea1abebc3d7907a04a5c3d03d5e244f0c6c4","amp;dn":"No+Good+Deed+2014+CAM+x264+AC3+TiTAN","amp;tr":["udp%3A%2F%2Ftracker.openbittorrent.com%3A80","udp%3A%2F%2Fopen.demonii.com%3A1337","udp%3A%2F%2Ftracker.coppersurfer.tk%3A6969","udp%3A%2F%2Fexodus.desync.com%3A6969"],"infoHash":"d58aea1abebc3d7907a04a5c3d03d5e244f0c6c4","infoHashBuffer":{"type":"Buffer","data":[213,138,234,26,190,188,61,121,7,160,74,92,61,3,213,226,68,240,198,196]},"announce":[],"urlList":[]}}